<?xml version="1.0" encoding="utf-8"?>
<!-- Generator: Adobe Illustrator 23.0.0, SVG Export Plug-In . SVG Version: 6.00 Build 0)  -->
<svg version="1.1" id="图层_1" xmlns="http://www.w3.org/2000/svg" xmlns:xlink="http://www.w3.org/1999/xlink" x="0px" y="0px"
	 viewBox="0 0 260 260" style="enable-background:new 0 0 260 260;" xml:space="preserve">
<style type="text/css">
	.st0{fill:#161616;}
</style>
<path class="st0" d="M131.21,30.52c-25.75,0-46.74,21-46.74,46.74c0,25.75,20.99,46.74,46.74,46.74c25.82,0,46.74-20.99,46.74-46.74
	C177.95,51.52,156.96,30.52,131.21,30.52z M131.21,115.99c-21.34,0-38.73-17.39-38.73-38.73c0-21.33,17.4-38.73,38.73-38.73
	s38.73,17.4,38.73,38.73C169.94,98.6,152.61,115.99,131.21,115.99L131.21,115.99z"/>
<path class="st0" d="M113.55,85.38h3.02v15.87h33.48V84.6h-9.33V70.5h9.26V53.51h-33.41v14.74h-3.02V85.38z M149.21,100.4h-31.88
	V84.54h-3.01V69.09h3.01V54.35h31.81v15.3h-9.19v14.89h-5.83v0.91h15.1V100.4L149.21,100.4z M116.71,82.08h3.01v15.87h27.17V87.84
	h-15.1v-5.76h5.83v-10.6h-5.83v-4.22h15.03V56.8h-27.1v14.68h-3.01L116.71,82.08L116.71,82.08z"/>
<path class="st0" d="M48.19,197.54H28.58v9.77c0,0.63,0.22,1.15,0.66,1.56c0.44,0.42,0.97,0.63,1.6,0.63H56.8l-4.74,9.41H24.95
	c-2.04,0-3.75-0.69-5.14-2.08c-1.39-1.39-2.08-3.1-2.08-5.14v-38.41c0-2.04,0.69-3.75,2.08-5.15c1.38-1.37,3.09-2.07,5.14-2.07
	h31.63l-4.74,9.4H30.85c-0.64,0-1.17,0.2-1.6,0.61c-0.44,0.42-0.66,0.94-0.66,1.58v10.5h24.34L48.19,197.54L48.19,197.54z
	 M64.82,207.23V162.4h10.85v44.83L64.82,207.23L64.82,207.23z M82.16,181.87h11.15c0.97,0,1.89,0.19,2.77,0.58
	c0.88,0.39,1.64,0.91,2.29,1.56c0.66,0.66,1.19,1.43,1.58,2.3c0.39,0.88,0.58,1.83,0.58,2.84v20.48c0,0.77-0.29,1.46-0.88,2.04
	l-6.34,6.42c-0.63,0.53-1.33,0.8-2.11,0.8H61.53l4.74-9.41h21.14c0.63,0,1.16-0.21,1.58-0.63c0.4-0.41,0.61-0.93,0.61-1.56v-13.85
	c0-0.58-0.2-1.08-0.61-1.49c-0.42-0.41-0.94-0.61-1.58-0.61h-9.99L82.16,181.87L82.16,181.87z M107.16,218.82v-36.95h10.86v36.95
	H107.16L107.16,218.82z M128.15,181.87h10.71l-2.12,13.85c-0.24,1.7-1,3.04-2.28,4.01c-1.29,0.97-2.86,1.45-4.71,1.45h-10.94
	l3.13-9.47h4.59L128.15,181.87L128.15,181.87z M156.14,209.49h8.67l-4.74,9.41h-9.84c-2.04,0-3.75-0.69-5.13-2.08
	c-1.39-1.39-2.08-3.1-2.08-5.14v-22.53c0-2.04,0.69-3.77,2.08-5.17c1.38-1.41,3.09-2.11,5.13-2.11h31.27l-4.74,9.48h-20.63
	c-0.63,0-1.16,0.2-1.6,0.61c-0.44,0.42-0.66,0.92-0.66,1.5v13.85c0,0.63,0.22,1.15,0.66,1.56
	C154.98,209.28,155.51,209.49,156.14,209.49L156.14,209.49z M166.42,194.55h10.86v12.03c0,0.97,0.29,1.7,0.87,2.18
	c0.59,0.49,1.36,0.73,2.34,0.73h2.84l-4.66,9.41h-5.03c-2.04,0-3.75-0.69-5.13-2.08c-1.39-1.39-2.08-3.1-2.08-5.14L166.42,194.55
	L166.42,194.55z M187.77,218.89v-37.03h10.86v37.03H187.77z M198.63,177.13h-10.86v-9.33h10.86V177.13z M205.49,218.82v-36.95h10.86
	v36.95H205.49z M218.61,191.34l4.74-9.48h11.37c2.04,0,3.77,0.7,5.17,2.11c1.41,1.41,2.11,3.13,2.11,5.18v29.67h-10.85V192.8
	c0-0.39-0.16-0.73-0.47-1.02c-0.32-0.3-0.67-0.44-1.06-0.44L218.61,191.34L218.61,191.34z"/>
<path class="st0" d="M48.6,242.64v-2.39h24.16v2.39H48.6z M88.39,234.56l-10.28,5.69l-1.41-2.08l11.69-6.34l11.91,6.34l-1.63,2.08
	L88.39,234.56z M87.08,236.97h2.61V255h-2.61L87.08,236.97L87.08,236.97z M117.78,232.04v9.08l10.28,11.37l-1.52,2.19l-10.28-11.14
	l-10.28,11.14l-1.41-2.08l10.38-11.47v-9.08L117.78,232.04L117.78,232.04z M148.93,233.15l-1.64,6.89l-2.3-1.21l1.65-6.89
	L148.93,233.15L148.93,233.15z M151.02,245.81l-1.98,1.87l-2.4-5.59l1.96-1.85L151.02,245.81L151.02,245.81z M135.38,235.75v6.46
	h5.25v-6.46H135.38z M140.63,252.26v-7.65h-5.25v7.65H140.63z M153.42,235.1h-5.79v-2.41h8.52l-0.22,21.98h-6.99v-2.41h4.27
	L153.42,235.1L153.42,235.1z M143.26,233.36v21.31h-10.61v-21.31h3.28l0.55-1.65l2.84,0.44l-0.34,1.21L143.26,233.36L143.26,233.36z
	 M183.47,234.99h-9.95v17.38h10.28v2.3h-22.94v-2.3h10.06v-17.38h-9.84v-2.3h22.4L183.47,234.99L183.47,234.99z M190.47,254.67
	h-2.74l1.87-7.32v-14.66h21.53v2.41h-18.9v12.8L190.47,254.67L190.47,254.67z"/>
<path class="st0" d="M200.79,89.74c-2.59-1.23-4.24-3.29-4.38-6.16c-0.21-4.36-0.25-8.72-0.2-13.08c0.04-3.39,1.75-5.82,4.89-7.18
	c0.7-0.31,1.4-0.61,2.1-0.91c-2-9.72-5.95-18.74-11.39-26.65c-0.54,0.23-1.1,0.48-1.7,0.78c-3.3,1.62-6.51,1.02-9.21-1.61
	c-1.53-1.49-2.89-3.21-4.58-4.49c-5.38-4.05-7.39-8.71-4.96-14.68c-7.93-5.2-16.92-8.91-26.56-10.72c-0.34,0.85-0.67,1.7-1.05,2.53
	c-1.25,2.7-3.39,4.37-6.36,4.51c-4.35,0.21-8.72,0.25-13.08,0.18c-3.28-0.06-5.65-1.75-7-4.77c-0.33-0.73-0.64-1.48-0.96-2.22
	c-9.7,2-18.71,5.94-26.62,11.37c0.65,1.65,1.29,3.35,2.06,5.37c-0.88,1.73-1.49,3.75-2.74,5.21c-2.61,3.05-5.52,5.84-8.38,8.67
	c-2.57,2.55-5.62,3.07-8.98,1.76c-0.62-0.24-1.23-0.5-1.84-0.75c-5.27,7.98-9.02,17.03-10.85,26.76c0.82,0.32,1.64,0.64,2.43,1.02
	c2.96,1.4,4.62,3.71,4.65,7.06c0.02,2.14-0.04,4.28,0.05,6.42c0.33,7.11,0.87,11.01-6.87,14.12c2.01,9.63,5.92,18.58,11.31,26.44
	c0.66-0.28,1.31-0.58,1.98-0.83c3.24-1.26,6.21-0.89,8.78,1.57c1.61,1.54,3.02,3.32,4.78,4.65c5.37,4.06,7.39,8.71,4.96,14.67
	c7.93,5.2,16.91,8.9,26.54,10.72c0.3-0.78,0.6-1.55,0.95-2.3c1.43-3.06,3.79-4.76,7.25-4.78c2.14-0.01,4.28,0.02,6.42-0.07
	c6.97-0.27,10.88-0.9,13.99,6.9c9.65-2,18.6-5.91,26.46-11.29c-0.3-0.7-0.61-1.41-0.88-2.12c-1.19-3.14-0.85-6.05,1.53-8.56
	c1.59-1.67,3.42-3.16,4.82-4.97c4.05-5.26,8.65-7.34,14.6-4.86c5.19-7.93,8.89-16.92,10.7-26.56
	C202.55,90.52,201.66,90.16,200.79,89.74L200.79,89.74z M131.21,130.74c-29.46,0-53.48-24.02-53.48-53.48
	c0-29.45,24.02-53.48,53.48-53.48s53.48,24.03,53.48,53.48C184.69,106.72,160.76,130.74,131.21,130.74z"/>
</svg>
