<?xml version="1.0" encoding="utf-8"?>
<!-- Generator: Adobe Illustrator 23.0.3, SVG Export Plug-In . SVG Version: 6.00 Build 0)  -->
<svg version="1.1" id="图层_1" xmlns="http://www.w3.org/2000/svg" xmlns:xlink="http://www.w3.org/1999/xlink" x="0px" y="0px"
	 viewBox="0 0 288 74" style="enable-background:new 0 0 288 74;" xml:space="preserve">
<style type="text/css">
	.st0{fill:#04A2AD;}
</style>
<path class="st0" d="M74.3,59H45.7c-0.3,0-0.5-0.3-0.4-0.6L74.7,1.6C74.8,1.3,74.6,1,74.3,1H56.2c-0.2,0-0.3,0.1-0.4,0.2L34.2,43.5
	c-0.1,0.2-0.4,0.3-0.6,0.1c-1.5-1.4-7.7-9.5-11.6-16.1c-0.7-1.3-1.1-2.7-1.1-4.1c0,0,0,0,0,0C21,20,29.5,4.2,31.5,1.6
	c0.2-0.3,0-0.6-0.3-0.6H23L12.1,23.9c-0.6,1.4-0.5,2.9,0.2,4.2l13,17.5c0.5,0.9,0.6,2.1,0.2,3.1l-7,13.4c1.1,0.9,1.7,2.4,1.3,4
	c-0.3,1.4-1.5,2.6-2.9,2.9c-2.6,0.6-4.9-1.3-5-3.8c0-1,0.4-2,1.1-2.7c1.6-1.6,2.8-1.6,3.9-1.3l6.4-11.9c0.5-1.2,0.4-2.6-0.3-3.8
	L10.8,28.9c-1-1.7-1.1-3.8-0.3-5.7L21,1h-7.8c-0.1,0-0.3,0.1-0.4,0.2C12.9,1.2,3,21,3,21c-0.2,0.4-3,6,1,10l9,11c0,0,0,0,0,0
	c0.1,0.2,3.9,5.6,0,11L2.3,72.4c-0.1,0.3,0,0.6,0.4,0.6h25.8l30-60.9c-1.1-0.9-1.8-2.4-1.4-4.1c0.3-1.4,1.5-2.6,2.9-2.9
	c2.6-0.6,4.9,1.3,5,3.8c0,1.1-0.5,2.1-1.3,2.8c-1.4,1.3-2.6,1.4-3.6,1.1L30.5,73h37.3c0.2,0,0.3-0.1,0.4-0.2l6.6-13.2
	C74.8,59.3,74.7,59,74.3,59z"/>
<g>
	<path class="st0" d="M134.1,38.7v5.6H90.9v-5.6h18.5V29h-13v-5.5h13V15h-9.9c-1.4,2.6-2.9,5.1-4.5,7c-1.2-0.9-3.7-2.6-5.1-3.4
		c3.7-4,6.9-10.7,8.5-17.2l5.9,1.3c-0.7,2.3-1.4,4.6-2.3,6.8h7.4V0.8h6v8.6h16.2V15h-16.2v8.5h14.3V29h-14.3v9.7L134.1,38.7
		L134.1,38.7z"/>
	<path class="st0" d="M184.1,39.1v5h-43.7v-5h5.5V25.5c-0.7,0.3-1.3,0.6-1.9,0.9c-0.7-1.4-2.1-3.5-3.3-4.7c4.5-1.3,10.8-4.1,14-6.4
		l4,2.8c-3,2.3-7.8,5-12,7.1h32.1v13.9C178.8,39.1,184.1,39.1,184.1,39.1z M183.6,14.8h-42.5v-5h11.3c-1-2.1-2.7-4.8-4.2-6.9
		l4.8-2.1c2,2.3,4.1,5.6,5,7.7l-2.6,1.3h14l-2.6-0.9c1.5-2.2,3.4-5.6,4.4-8.1l5.8,1.7c-1.6,2.6-3.4,5.3-4.9,7.3h11.5V14.8z
		 M151,39.1h4V30h-4V39.1z M160.2,30v9.1h4V30C164.2,30,160.2,30,160.2,30z M169.1,15.2c4.6,1.6,11.4,4.2,14.9,6l-3.2,4.5
		c-3.3-1.9-10-4.8-14.7-6.6L169.1,15.2z M169.4,30v9.1h4.1V30C173.5,30,169.4,30,169.4,30z"/>
	<path class="st0" d="M205.6,31.4c-0.6-1.3-1.7-3.4-2.9-5.3v19.5h-5.5V28.3c-1.6,3.7-3.4,7.1-5.2,9.5c-0.5-1.6-1.8-4-2.6-5.4
		c2.7-3.1,5.4-8.2,7.1-12.9H190v-5.3h7.2V8.8c-1.9,0.3-3.6,0.6-5.4,0.8c-0.2-1.3-0.9-3.2-1.5-4.4c5.5-0.9,11.5-2.3,15.5-3.9l3.2,4.7
		c-1.9,0.7-4,1.3-6.2,1.8v6.6h6.3v5.3h-6.3v0.4c1.4,1.3,5.3,5.9,6.2,7L205.6,31.4z M229.3,33.5v12.1h-5.6V34.5L209.2,37l-0.9-5.4
		l15.4-2.6V0.8h5.6V28l4.8-0.8l0.9,5.3L229.3,33.5z M217.2,26.8c-1.5-2.1-4.9-5.2-7.6-7.3l3.6-3.3c2.7,1.9,6.3,4.9,7.9,7L217.2,26.8
		z M218.5,14.1c-1.3-2.1-4.5-5.1-7.1-7.2l3.7-3.3c2.6,2,5.9,4.8,7.4,6.9L218.5,14.1z"/>
	<path class="st0" d="M256.5,26.4c-1.7,0.5-3.4,1-5.1,1.4v11.5c0,2.8-0.5,4.1-2.2,5c-1.6,0.9-3.9,1-7.3,1c-0.2-1.4-0.9-3.7-1.6-5.2
		c1.9,0,3.8,0,4.5,0c0.7,0,0.9-0.2,0.9-1v-9.9l-4.7,1.1l-1.5-5.4c1.8-0.4,3.8-0.8,6.1-1.4v-8.5h-5.5V9.9h5.5V0.8h5.7v9.1h4.7v5.3
		h-4.7v7.1l4.4-1.1L256.5,26.4z M283.1,19.9c-1.8,6.6-4.9,11.9-9,15.9c3.2,2.2,6.9,3.8,11.1,4.8c-1.2,1.2-2.8,3.5-3.6,4.9
		c-4.7-1.4-8.6-3.4-12-6c-3.7,2.6-8,4.5-12.7,5.9c-0.6-1.5-2-3.9-3-5.2c4.2-1,8.1-2.5,11.5-4.7c-2.8-3.2-5-7-6.8-11.4l1.4-0.4h-2.5
		v-5.1h9.5v-5.8h-10.3V7.6H267V0.7h5.7v6.9h10.8v5.3h-10.8v5.8h5.8l1-0.2L283.1,19.9z M264.2,23.8c1.3,3.2,3.3,6,5.7,8.5
		c2.5-2.4,4.6-5.2,6-8.5H264.2z"/>
</g>
<g>
	<path class="st0" d="M159.5,70.5l2.4-2.3c1.9,1.6,4.4,2.6,6.9,2.6c3.1,0,4.9-1.2,4.9-3.1c0-2-1.8-2.6-4.1-3.5l-3.6-1.3
		c-2.5-0.9-5.2-2.5-5.2-5.7c0-3.4,3.6-6,8.5-6c3,0,5.9,1.1,7.8,2.7l-2.1,2.2c-1.6-1.2-3.4-1.9-5.7-1.9c-2.6,0-4.3,1.1-4.3,2.8
		c0,1.9,2.1,2.6,4.2,3.3l3.5,1.3c3.1,1.1,5.2,2.7,5.2,5.8c0,3.5-3.4,6.3-9.1,6.3C165.2,73.7,161.9,72.5,159.5,70.5z"/>
	<path class="st0" d="M186.3,65.1l-7.7-13.4h4.3c0,0,4.5,8.9,5.4,10.5h0.1c0.8-1.6,5.5-10.5,5.5-10.5h4.2l-7.8,13.4v8.2h-4.1
		L186.3,65.1L186.3,65.1z"/>
	<path class="st0" d="M206.1,54.5h-7.6v-2.9h19.2v2.9h-7.6v18.8h-4.1V54.5z"/>
	<path class="st0" d="M222.2,51.6h15.2v2.9h-11.2v6h9.5v2.9h-9.5v7h11.6v2.9h-15.6V51.6z"/>
	<path class="st0" d="M241.8,62.5c0-7,5.1-11.3,11.6-11.3c3.2,0,5.7,1.3,7.3,2.7l-2.2,2.2c-1.3-1.1-2.9-1.9-5-1.9
		c-4.4,0-7.5,3.1-7.5,8.2c0,5.1,2.9,8.3,7.4,8.3c2.4,0,4.2-0.9,5.7-2.3l2.2,2.1c-2.1,2-4.7,3.1-8,3.1
		C246.7,73.7,241.8,69.6,241.8,62.5z"/>
	<path class="st0" d="M265.8,51.6h4.1v8.8h11v-8.8h4.1v21.6h-4.1v-9.8h-11v9.8h-4.1V51.6z"/>
</g>
</svg>
